<?xml version="1.0" encoding="UTF-8" standalone="no"?>
<svg
   xmlns:dc="http://purl.org/dc/elements/1.1/"
   xmlns:cc="http://creativecommons.org/ns#"
   xmlns:rdf="http://www.w3.org/1999/02/22-rdf-syntax-ns#"
   xmlns:svg="http://www.w3.org/2000/svg"
   xmlns="http://www.w3.org/2000/svg"
   xmlns:sodipodi="http://sodipodi.sourceforge.net/DTD/sodipodi-0.dtd"
   xmlns:inkscape="http://www.inkscape.org/namespaces/inkscape"
   width="210mm"
   height="297mm"
   viewBox="0 0 744.09448819 1052.3622047"
   id="svg2"
   version="1.1"
   inkscape:version="0.91 r"
   sodipodi:docname="logo.svg">
  <defs
     id="defs4" />
  <sodipodi:namedview
     id="base"
     pagecolor="#ffffff"
     bordercolor="#666666"
     borderopacity="1.0"
     inkscape:pageopacity="0.0"
     inkscape:pageshadow="2"
     inkscape:zoom="1.4"
     inkscape:cx="65.062784"
     inkscape:cy="1040.277"
     inkscape:document-units="px"
     inkscape:current-layer="g4169"
     showgrid="false"
     inkscape:window-width="1364"
     inkscape:window-height="703"
     inkscape:window-x="0"
     inkscape:window-y="0"
     inkscape:window-maximized="1" />
  <metadata
     id="metadata7">
    <rdf:RDF>
      <cc:Work
         rdf:about="">
        <dc:format>image/svg+xml</dc:format>
        <dc:type
           rdf:resource="http://purl.org/dc/dcmitype/StillImage" />
        <dc:title />
      </cc:Work>
    </rdf:RDF>
  </metadata>
  <g
     inkscape:label="Layer 1"
     inkscape:groupmode="layer"
     id="layer1">
    <g
       id="g4179"
       inkscape:export-xdpi="90"
       inkscape:export-ydpi="90">
      <path
         style="opacity:0;fill:#272727;fill-opacity:1;stroke:none;stroke-width:10;stroke-miterlimit:4;stroke-dasharray:none;stroke-opacity:1"
         d="m 142.85715,448.93362 300,0 0,87.3731 -300,0 z"
         id="rect4136" />
      <g
         id="g4169">
        <g
           style="font-style:normal;font-variant:normal;font-weight:600;font-stretch:normal;font-size:75.73873901px;line-height:125%;font-family:Dosis;-inkscape-font-specification:'Dosis, Semi-Bold';text-align:start;letter-spacing:0px;word-spacing:0px;writing-mode:lr-tb;text-anchor:start;fill:#000000;fill-opacity:1;stroke:none;stroke-width:1px;stroke-linecap:butt;stroke-linejoin:miter;stroke-opacity:1"
           id="text4138"
           transform="matrix(0.40315981,0,0,0.40315981,-57.239517,-181.43723)"
           inkscape:export-xdpi="90"
           inkscape:export-ydpi="90">
          <path
             d="m 158.60387,459.55655 c -2.12068,0 -3.55972,1.21182 -3.55972,2.57512 l 0,50.21478 c 0,1.3633 1.43904,2.57512 3.55972,2.57512 l 13.40576,0 c 9.61882,0 17.04122,-4.62006 17.04122,-16.88974 l 0,-21.58554 c 0,-12.26968 -7.4224,-16.88974 -17.04122,-16.88974 l -13.40576,0 z m 13.40576,7.11944 c 5.6804,0 9.01291,3.10529 9.01291,9.7703 l 0,21.58554 c 0,6.66501 -3.33251,9.7703 -9.01291,9.7703 l -8.93717,0 0,-41.12614 8.93717,0 z"
             style="fill:#ffffff;fill-opacity:1"
             id="path4146"
             inkscape:connector-curvature="0" />
          <path
             d="m 250.90692,466.67599 0,31.81027 c 0,6.66501 -3.33251,9.7703 -9.08865,9.7703 -6.28632,0 -8.7857,-4.01415 -8.93717,-8.55848 -0.0757,-2.04494 -1.89347,-2.65085 -3.93842,-2.65085 -2.72659,0 -4.08989,0.83312 -4.08989,3.86267 0,8.7857 7.11944,14.4661 17.26843,14.4661 9.31587,0 16.814,-4.62006 16.814,-16.88974 l 0,-36.27885 c 0,-1.74199 -1.81773,-2.65086 -3.55972,-2.65086 l -13.33002,0 c -1.89346,0 -2.65085,1.81773 -2.65085,3.48398 0,1.96921 0.9846,3.63546 2.65085,3.63546 l 8.86144,0 z"
             style="fill:#c71f36;fill-opacity:1"
             id="path4148"
             inkscape:connector-curvature="0" />
          <path
             d="m 282.60239,515.52748 c 8.55848,0 15.60218,-6.96796 15.60218,-14.92053 l 0,-19.01043 c 0,-1.36329 -1.59051,-2.57511 -3.86267,-2.57511 -2.19643,0 -4.01416,1.21182 -4.01416,2.57511 l 0,19.01043 c 0,4.01415 -3.40824,7.87683 -7.72535,7.87683 -4.24137,0 -7.72535,-3.86268 -7.72535,-7.87683 l 0,-18.93469 c 0,-1.36329 -1.81773,-2.65085 -3.93841,-2.65085 -2.19643,0 -4.01416,1.28756 -4.01416,2.65085 l 0,18.93469 c 0,7.87683 7.11945,14.92053 15.67792,14.92053 z"
             style="fill:#c71f36;fill-opacity:1"
             id="path4150"
             inkscape:connector-curvature="0" />
          <path
             d="m 319.23153,505.68144 c 8.407,0 14.31462,-5.37745 14.31462,-12.57263 l 0,-2.12068 c 0,-2.7266 -0.83312,-5.30171 -2.42363,-7.27092 1.21182,-1.74199 2.72659,-2.57512 3.78693,-3.02955 0.68165,-0.37869 1.28756,-1.06034 1.28756,-1.89347 0,-1.13608 -1.21182,-2.72659 -3.25676,-2.72659 -1.59052,0 -3.33251,1.43903 -4.92302,5.07449 -2.27217,-1.66625 -5.30171,-2.57511 -8.7857,-2.57511 -8.48274,0 -14.0874,5.15023 -14.0874,12.42115 l 0,2.12068 c 0,3.93842 1.66625,7.34666 4.46858,9.54308 -2.27216,1.43904 -3.78693,2.95381 -3.78693,5.75615 0,2.72659 1.43903,4.08989 3.55972,4.99876 -3.18103,1.51477 -5.83189,4.08989 -5.83189,8.10404 0,6.58927 7.27092,10.45195 16.13236,10.45195 8.55847,0 15.90513,-3.48399 15.90513,-11.43655 0,-14.01167 -23.02458,-8.02831 -23.02458,-13.63298 0,-0.9846 0.68165,-1.59051 1.43904,-2.12068 1.51478,0.60591 3.3325,0.90886 5.22597,0.90886 z m 6.58927,-12.57263 c 0,4.31711 -2.42364,7.49814 -6.43779,7.49814 -4.16563,0 -6.51353,-3.25677 -6.51353,-7.57388 l 0,-2.04494 c 0,-4.08989 2.3479,-7.34666 6.43779,-7.34666 4.16563,0 6.51353,3.25677 6.51353,7.34666 l 0,2.12068 z m 2.04495,27.64464 c 0,3.63546 -3.40824,5.90762 -8.25552,5.90762 -4.99876,0 -8.55848,-2.27216 -8.55848,-5.98336 0,-2.80233 2.27216,-4.62006 5.07449,-5.6804 4.77155,0.30295 11.73951,0.75739 11.73951,5.75614 z"
             style="fill:#c71f36;fill-opacity:1"
             id="path4152"
             inkscape:connector-curvature="0" />
          <path
             d="m 352.77552,478.56698 c -5.15023,0 -11.43655,2.12068 -11.43655,4.84727 0,1.81773 0.9846,4.01416 2.87807,4.01416 1.51478,0 2.87807,-2.27216 8.407,-2.27216 5.52893,0 7.49814,4.3171 7.49814,8.17978 l 0,1.3633 -3.33251,0 c -10.52768,0 -17.72286,2.27216 -17.72286,10.83064 0,6.81648 4.54432,9.99751 10.07325,9.99751 5.15023,0 8.78569,-2.80233 11.43655,-5.90762 l 0,2.65085 c 0,1.43904 1.59051,2.65086 3.63546,2.65086 2.19642,0 3.86268,-1.21182 3.86268,-2.65086 l 0,-19.01042 c 0,-7.57387 -4.16564,-14.69331 -15.29923,-14.69331 z m 7.34666,23.32753 c 0,3.63546 -4.31711,7.57387 -8.10405,7.57387 -2.80233,0 -4.92302,-1.51477 -4.92302,-4.92302 0,-4.84728 5.37746,-5.45319 11.1336,-5.45319 l 1.89347,0 0,2.80234 z"
             style="fill:#c71f36;fill-opacity:1"
             id="path4154"
             inkscape:connector-curvature="0" />
          <path
             d="m 387.68635,478.56698 c -5.15024,0 -11.43655,2.12068 -11.43655,4.84727 0,1.81773 0.9846,4.01416 2.87807,4.01416 1.51477,0 2.87807,-2.27216 8.407,-2.27216 5.52893,0 7.49814,4.3171 7.49814,8.17978 l 0,1.3633 -3.33251,0 c -10.52768,0 -17.72286,2.27216 -17.72286,10.83064 0,6.81648 4.54432,9.99751 10.07325,9.99751 5.15023,0 8.78569,-2.80233 11.43655,-5.90762 l 0,2.65085 c 0,1.43904 1.59051,2.65086 3.63546,2.65086 2.19642,0 3.86267,-1.21182 3.86267,-2.65086 l 0,-19.01042 c 0,-7.57387 -4.16563,-14.69331 -15.29922,-14.69331 z m 7.34666,23.32753 c 0,3.63546 -4.31711,7.57387 -8.10405,7.57387 -2.80233,0 -4.92302,-1.51477 -4.92302,-4.92302 0,-4.84728 5.37745,-5.45319 11.1336,-5.45319 l 1.89347,0 0,2.80234 z"
             style="fill:#c71f36;fill-opacity:1"
             id="path4156"
             inkscape:connector-curvature="0" />
          <path
             d="m 437.21474,457.66308 c -2.27217,0 -4.01416,1.06035 -4.01416,2.57512 l 0,24.08492 c -1.66625,-2.95381 -5.07449,-5.75614 -9.84603,-5.75614 -7.4224,0 -13.55724,6.74074 -13.55724,14.92053 l 0,6.96796 c 0,7.87683 6.21058,15.07201 13.33002,15.07201 4.77154,0 8.93717,-2.80233 10.45195,-5.90762 l 0,2.65085 c 0,1.28756 1.66625,2.65086 3.63546,2.65086 2.27216,0 3.93841,-1.3633 3.93841,-2.65086 l 0,-52.03251 c 0,-1.51477 -1.66625,-2.57512 -3.93841,-2.57512 z m -19.46486,35.82443 c 0,-3.93842 3.48398,-7.87683 7.72535,-7.87683 3.78694,0 7.72535,2.95381 7.72535,7.87683 l 0,8.70995 c 0,1.81773 -3.40824,6.28632 -7.80109,6.28632 -4.16563,0 -7.64961,-3.93842 -7.64961,-8.02831 l 0,-6.96796 z"
             style="fill:#c71f36;fill-opacity:1"
             id="path4158"
             inkscape:connector-curvature="0" />
        </g>
        <path
           d="m 21.783865,24.805178 0.843374,0.574171 c 0.301314,0.205055 0.71183,0.127085 0.917176,-0.174262 l 0.475362,-0.698755 c 0.228458,0.09199 0.465396,0.170092 0.710608,0.232304 0.245317,0.06234 0.490789,0.1067 0.735297,0.134788 l 0.08491,0.840987 c 0.03627,0.362663 0.360025,0.627119 0.722664,0.590429 l 1.015092,-0.102056 c 0.362625,-0.03665 0.627187,-0.360196 0.590596,-0.723068 l -0.08462,-0.840745 c 0.475575,-0.155111 0.927534,-0.373624 1.342966,-0.648532 l 0.605877,0.590001 c 0.261033,0.254426 0.678944,0.248851 0.933097,-0.01237 l 0.712004,-0.730655 c 0.25418,-0.261296 0.248642,-0.679116 -0.01243,-0.933504 L 30.77115,22.314844 c 0.259249,-0.414868 0.466594,-0.870584 0.611348,-1.360705 l 0.843148,0.06251 c 0.36386,0.02717 0.680469,-0.245681 0.707582,-0.609159 l 0.07544,-1.017389 c 0.01629,-0.21871 -0.07677,-0.419996 -0.232045,-0.551877 l -3.270203,1.612585 c -0.560219,1.806323 -2.444081,2.876526 -4.298099,2.405881 -0.122432,-0.03116 -0.24125,-0.06813 -0.35724,-0.110797 l -3.341674,1.647655 c 0.03354,0.161768 0.126999,0.311247 0.274435,0.411621"
           style="opacity:1;fill:#efefef;fill-opacity:0.99607843;fill-rule:nonzero;stroke:none"
           id="path216"
           inkscape:connector-curvature="0" />
        <path
           d="m 21.57244,23.950281 2.840285,-1.400461 c -1.426024,-0.754525 -2.207218,-2.409769 -1.792606,-4.042745 0.486404,-1.915751 2.433824,-3.074524 4.34951,-2.588153 1.821137,0.462441 2.9571,2.244717 2.647401,4.065093 l 2.657496,-1.310306 -0.71745,-0.05329 c -0.07018,-0.498337 -0.207822,-0.980859 -0.405813,-1.435373 l 0.686089,-0.494096 c 0.295758,-0.213006 0.362909,-0.625564 0.149766,-0.921463 l -0.596063,-0.82786 c -0.21281,-0.295758 -0.62535,-0.362941 -0.92149,-0.149975 l -0.685494,0.493641 C 29.41828,14.9551 29.004546,14.671159 28.551006,14.445753 l 0.207846,-0.81881 c 0.0897,-0.353342 -0.123964,-0.712508 -0.477204,-0.802167 L 27.292773,12.57368 c -0.353244,-0.08966 -0.71252,0.123995 -0.802255,0.477325 l -0.207845,0.818813 c -0.506353,-0.01826 -1.005106,0.034 -1.484375,0.149641 l -0.36706,-0.760932 C 24.272882,12.930211 23.878265,12.792434 23.549886,12.95084 l -0.918797,0.443262 c -0.328281,0.158365 -0.466045,0.55295 -0.30759,0.881311 l 0.367395,0.761546 c -0.391113,0.304981 -0.74238,0.663414 -1.041633,1.067901 l -0.76999,-0.346737 c -0.332393,-0.149762 -0.72322,-0.0016 -0.872901,0.330755 L 19.587446,17.019 c -0.149697,0.332423 -0.0016,0.723237 0.330789,0.872919 l 0.771281,0.34733 c -0.106608,0.499748 -0.141819,0.999247 -0.111877,1.487501 l -0.812617,0.229281 c -0.350881,0.0989 -0.555115,0.463602 -0.456107,0.814492 l 0.276951,0.981748 c 0.09903,0.350937 0.46365,0.555097 0.814524,0.456117 l 0.813717,-0.229526 c 0.234018,0.439722 0.526987,0.847422 0.871144,1.210539 l -0.475632,0.698563 c -0.01375,0.02032 -0.02591,0.04113 -0.03717,0.06232"
           style="fill:#ef4a33;fill-opacity:1;fill-rule:nonzero;stroke:none"
           id="path218"
           inkscape:connector-curvature="0" />
        <path
           d="m 32.647485,8.0969491 c 1.455189,0.3694839 2.338424,1.8538618 1.968997,3.3089179 -0.369778,1.454947 -1.854043,2.33819 -3.308893,1.968848 -1.455207,-0.369453 -2.338308,-1.853774 -1.968864,-3.308862 0.369443,-1.4550889 1.853653,-2.3383958 3.30876,-1.9689039 z m -4.795186,1.6388606 0.515573,0.2322115 c -0.07104,0.3342088 -0.09479,0.6679678 -0.07453,0.9944268 l -0.543373,0.153253 c -0.234643,0.06614 -0.371178,0.309909 -0.304761,0.544552 l 0.184978,0.656191 c 0.04448,0.157381 0.168682,0.270565 0.316589,0.30814 0.07246,0.01838 0.15061,0.01846 0.227939,-0.0033 l 0.543862,-0.153483 c 0.156449,0.294038 0.352507,0.566602 0.582671,0.8094 l -0.317855,0.466944 c -0.137276,0.201503 -0.08532,0.47587 0.116251,0.613057 l 0.563702,0.383772 c 0.04392,0.02987 0.09126,0.0508 0.139903,0.06312 0.174533,0.0443 0.365829,-0.02193 0.472964,-0.179586 l 0.318412,-0.466944 c 0.152523,0.06143 0.310647,0.113498 0.474437,0.155092 0.164139,0.04171 0.328266,0.0714 0.491897,0.09021 l 0.05637,0.562133 c 0.01914,0.189663 0.1561,0.33932 0.330629,0.383611 0.04866,0.01231 0.09999,0.01653 0.152644,0.01113 l 0.67869,-0.0683 c 0.242421,-0.02447 0.419085,-0.240833 0.394771,-0.483227 l -0.05674,-0.562207 c 0.31794,-0.103641 0.620301,-0.249629 0.898017,-0.433445 l 0.404906,0.394432 c 0.05736,0.05592 0.126282,0.0931 0.198533,0.11142 0.148057,0.03762 0.311508,-0.0024 0.425184,-0.119826 l 0.475866,-0.488361 c 0.170274,-0.174571 0.166517,-0.453885 -0.0081,-0.623978 l -0.40437,-0.393819 c 0.173407,-0.277311 0.311779,-0.582066 0.408743,-0.909582 l 0.564093,0.04197 c 0.242879,0.01798 0.454228,-0.164529 0.472548,-0.407429 l 0.05041,-0.680095 c 0.01589,-0.216882 -0.12725,-0.408601 -0.331095,-0.460362 -0.02467,-0.0063 -0.04988,-0.01036 -0.07637,-0.01237 l -0.562962,-0.04184 C 35.586128,9.8898178 35.493874,9.567157 35.361432,9.2633313 l 0.458602,-0.3303731 c 0.197739,-0.1423959 0.242791,-0.4181048 0.100262,-0.615899 L 35.521982,7.7636377 C 35.459112,7.6761797 35.369624,7.6184517 35.272701,7.593859 35.150406,7.562775 35.016347,7.584179 34.905938,7.663356 L 34.447505,7.993325 C 34.202973,7.7726071 33.926555,7.5828479 33.623152,7.432054 L 33.762279,6.8846839 C 33.822116,6.6485332 33.679099,6.4083426 33.443041,6.3484614 L 32.782149,6.1806501 C 32.54607,6.1207197 32.305768,6.2635359 32.245943,6.499735 L 32.106872,7.0470847 C 31.768528,7.0349896 31.4351,7.0698635 31.114636,7.147149 L 30.869365,6.6385792 C 30.810242,6.5162121 30.702313,6.4334997 30.580224,6.4024928 30.483283,6.3778601 30.377381,6.3858828 30.280212,6.432851 L 29.66587,6.7290402 C 29.44641,6.835019 29.3545,7.0988426 29.460351,7.3183268 l 0.245426,0.5090337 C 29.44441,8.0312583 29.20973,8.2708844 29.009654,8.5412998 L 28.494988,8.309479 C 28.470718,8.298594 28.446428,8.290167 28.421628,8.283838 28.217946,8.232064 28.000564,8.33235 27.911332,8.5305477 l -0.280084,0.6217649 c -0.100051,0.2222708 -0.0012,0.4834611 0.221038,0.5835255"
           style="fill:#ef4a33;fill-opacity:1;fill-rule:nonzero;stroke:none"
           id="path222"
           inkscape:connector-curvature="0" />
        <path
           d="m 0.957408,14.464886 c 0,0 4.6178648,11.954524 4.5529237,11.4306 C 5.4453915,25.371561 23.413734,11.571792 23.413734,11.571792 L 0.957408,14.464886"
           style="fill:#c71f36;fill-opacity:1;fill-rule:nonzero;stroke:none"
           id="path10246"
           inkscape:connector-curvature="0" />
      </g>
    </g>
  </g>
</svg>
